<?xml version="1.0" standalone="no"?>
<!DOCTYPE svg PUBLIC "-//W3C//DTD SVG 20010904//EN"
 "http://www.w3.org/TR/2001/REC-SVG-20010904/DTD/svg10.dtd">
<svg version="1.0" xmlns="http://www.w3.org/2000/svg"
 width="135.000000pt" height="30.000000pt" viewBox="0 0 135.000000 30.000000"
 preserveAspectRatio="xMidYMid meet">

<g transform="translate(0.000000,30.000000) scale(0.100000,-0.100000)"
fill="#000000" stroke="none">
<path d="M0 275 c0 -21 5 -25 30 -25 l30 0 0 -125 c0 -115 1 -125 18 -125 11
0 29 9 42 20 13 11 18 20 12 20 -8 0 -12 32 -12 105 l0 105 30 0 c29 0 30 -1
30 -49 0 -43 -3 -50 -23 -54 -21 -4 -21 -4 -1 -6 25 -1 34 -25 34 -93 l0 -48
70 0 c68 0 70 1 70 25 0 22 -4 25 -35 25 -34 0 -35 1 -35 40 0 37 2 40 28 40
35 0 41 6 35 31 -4 15 -14 19 -45 19 -38 0 -39 1 -36 33 3 30 6 32 46 35 37 3
42 6 42 27 l0 24 -165 0 -165 1 0 -25z" fill="white"/>
<path d="M425 293 c-48 -12 -66 -62 -41 -111 12 -23 13 -32 3 -35 -6 -3 3 -6
21 -6 17 -1 32 -5 32 -11 0 -5 11 -10 25 -10 22 0 25 -4 25 -35 0 -33 -2 -35
-35 -35 -28 0 -35 4 -35 19 0 17 -6 20 -41 18 -23 -1 -36 -3 -30 -5 6 -2 11
-10 11 -18 0 -8 7 -14 15 -14 9 0 15 -9 15 -25 0 -24 2 -25 70 -25 68 0 70 1
70 25 0 14 5 25 11 25 7 0 10 17 7 45 -2 25 1 47 7 49 5 2 -12 2 -40 0 -36 -3
-43 -1 -25 5 25 7 24 8 -15 27 -42 20 -59 57 -31 67 22 9 46 -2 46 -20 0 -10
6 -12 23 -7 31 9 32 11 19 39 -17 36 -57 50 -107 38z" fill="white"/>
<path d="M550 275 c0 -21 5 -25 30 -25 l30 0 0 -125 0 -125 25 0 c13 0 28 6
32 14 4 7 15 16 23 20 8 3 2 4 -15 1 -16 -2 -24 -2 -17 1 8 4 12 36 12 110 l0
104 30 0 c25 0 30 4 30 25 0 25 -1 25 -90 25 -89 0 -90 0 -90 -25z" fill="white"/>
<path d="M791 220 c-22 -73 -26 -81 -55 -89 -17 -5 -23 -10 -13 -10 13 -1 17
-10 17 -41 0 -22 -4 -40 -10 -40 -5 0 -10 -9 -10 -20 0 -15 7 -20 25 -20 18 0
25 5 25 19 0 11 9 21 21 24 12 3 18 10 14 16 -4 7 7 11 29 11 34 0 36 -2 36
-35 0 -31 3 -35 26 -35 21 0 25 4 21 20 -3 11 0 20 5 20 6 0 8 12 5 30 -4 17
-2 30 3 30 5 0 10 -21 12 -47 3 -41 6 -48 26 -51 19 -3 22 1 22 30 0 60 10 78
41 78 16 0 29 5 29 10 0 6 11 10 25 10 20 0 25 5 25 25 0 14 -5 25 -12 25 -6
0 -9 2 -6 5 12 13 58 -8 58 -26 0 -10 8 -23 18 -28 16 -10 16 -10 0 -11 -14 0
-18 -9 -18 -44 0 -60 8 -76 37 -76 23 0 25 3 19 31 -3 17 -3 42 0 55 5 19 13
24 40 24 19 0 34 5 34 10 0 6 11 10 25 10 20 0 25 5 25 24 0 13 6 27 13 29 10
4 10 6 0 6 -7 1 -13 12 -13 25 0 59 -39 86 -125 86 l-55 0 0 -55 c0 -68 -21
-74 -38 -11 -13 51 -42 66 -123 66 l-49 0 0 -85 c0 -74 2 -85 18 -86 14 0 14
-2 -3 -8 -25 -10 -32 0 -66 99 -22 64 -29 75 -50 78 -23 3 -27 -3 -48 -78z
m257 18 c21 -21 14 -58 -14 -68 -14 -6 -27 -10 -30 -10 -2 0 -4 20 -4 45 0 37
3 45 18 45 10 0 23 -5 30 -12z m206 6 c21 -8 22 -74 2 -74 -8 0 -21 -3 -30 -6
-13 -5 -16 2 -16 40 0 47 8 54 44 40z m-402 -105 c3 -28 -1 -35 -18 -37 -20
-3 -20 -1 -10 48 11 54 23 49 28 -11z m475 45 c-3 -3 -12 -4 -19 -1 -8 3 -5 6
6 6 11 1 17 -2 13 -5z" fill="white"/>
</g>
</svg>
